<svg width="151" height="149" viewBox="0 0 151 149" fill="none" xmlns="http://www.w3.org/2000/svg">
<path d="M20.7447 101.26C8.00896 81.7696 0.88032 59.6433 0.00295144 36.9594C-0.0652817 35.1949 1.05452 33.5649 2.84861 32.7412L72.9818 0.542699C74.5575 -0.1809 76.4426 -0.1809 78.0183 0.542699L148.152 32.7412C149.945 33.5649 151.066 35.195 150.997 36.9594C150.12 59.6433 142.991 81.7696 130.256 101.26C117.514 120.759 99.5954 136.952 78.1975 148.339C76.5408 149.22 74.4593 149.22 72.8026 148.339C51.4047 136.952 33.4863 120.759 20.7447 101.26Z" fill="#2BA028"/>
<path d="M48.5093 79.2617L70.1021 93.3573L113.288 55.769" stroke="black" stroke-width="5.86149" stroke-linecap="round" stroke-linejoin="round"/>
</svg>
