<svg width="174" height="174" viewBox="0 0 174 174" fill="none" xmlns="http://www.w3.org/2000/svg">
<path d="M173.032 86.9836C173.044 97.1999 171.23 107.336 167.676 116.914C167.29 117.952 166.886 118.982 166.463 119.993C158.727 138.554 144.753 153.83 126.955 163.184C126.091 163.643 125.209 164.103 124.327 164.507C113.402 169.773 101.488 172.673 89.3653 173.019C77.2424 173.364 65.1831 171.146 53.9758 166.51C53.057 166.133 52.1382 165.738 51.2194 165.325C33.0732 157.047 18.3555 142.735 9.5708 124.826C9.10221 123.907 8.65201 122.896 8.211 121.922C3.02802 110.204 0.525383 97.4758 0.885601 84.6668C1.24582 71.8579 4.45981 59.2908 10.2932 47.8821C16.1265 36.4734 24.4322 26.5107 34.6045 18.7206C44.7768 10.9305 56.5591 5.50934 69.0924 2.85254C81.6257 0.19574 94.5938 0.37026 107.051 3.36337C119.508 6.35649 131.141 12.0927 141.1 20.1538C151.059 28.2148 159.093 38.3974 164.618 49.959C170.142 61.5205 173.017 74.1695 173.032 86.9836Z" fill="white"/>
<path d="M86.9509 173.999C75.5292 174.023 64.2169 171.773 53.6724 167.383C52.6985 166.988 51.7613 166.583 50.916 166.188C32.5925 157.809 17.7313 143.348 8.85394 125.258C8.33942 124.21 7.93515 123.245 7.48495 122.326C1.69845 109.291 -0.795767 95.0328 0.221813 80.8067C1.23939 66.5806 5.73757 52.8227 13.3205 40.744C20.9033 28.6652 31.3385 18.6358 43.7074 11.5386C56.0763 4.44135 69.9998 0.493817 84.2525 0.0434077C98.5053 -0.407001 112.65 2.65353 125.442 8.95564C138.235 15.2578 149.282 24.6082 157.612 36.1841C165.942 47.76 171.3 61.2064 173.213 75.3399C175.127 89.4734 173.537 103.861 168.585 117.235C168.181 118.32 167.767 119.367 167.354 120.351C159.555 139.109 145.451 154.554 127.479 164.02C126.661 164.461 125.788 164.893 124.814 165.361C113.016 171.09 100.065 174.044 86.9509 173.999ZM86.9509 1.80507C72.7636 1.80959 58.8021 5.35791 46.3337 12.128C33.8652 18.898 23.2847 28.6754 15.5524 40.5726C7.82016 52.4698 3.18107 66.1101 2.05623 80.2553C0.931386 94.4006 3.35642 108.603 9.1112 121.573C9.51546 122.492 9.95648 123.411 10.4618 124.449C19.1526 142.165 33.7107 156.324 51.6602 164.516C52.5055 164.902 53.4151 165.297 54.3707 165.683C65.4571 170.272 77.3873 172.467 89.3806 172.127C101.374 171.786 113.16 168.917 123.969 163.707C124.888 163.248 125.806 162.788 126.569 162.402C144.164 153.129 157.973 138.007 165.617 119.643C166.013 118.724 166.417 117.649 166.812 116.592C171.582 103.712 173.167 89.8688 171.433 76.2433C169.699 62.6177 164.696 49.6135 156.852 38.3391C149.008 27.0646 138.555 17.8542 126.384 11.4929C114.213 5.1315 100.684 1.80781 86.9509 1.80507Z" fill="#093F68"/>
<path d="M77.1836 40.9621C77.1836 40.9621 44.0338 80.8081 48.3613 87.5349C52.6888 94.2617 88.8614 119.625 101.789 125.313L114.468 140.577L148.509 110.693C148.509 110.693 110.379 56.0422 101.495 47.4683C92.6101 38.8944 77.1836 40.9621 77.1836 40.9621Z" fill="#FFC9B0"/>
<path d="M114.432 141.496H114.358C114.236 141.486 114.117 141.452 114.008 141.395C113.899 141.338 113.803 141.26 113.724 141.165L101.192 126.067C86.2066 119.386 51.4857 94.2158 47.5441 88.0312C43.1247 81.093 70.8721 47.1191 76.4767 40.374C76.623 40.1985 76.8293 40.0839 77.0555 40.0523C77.6987 39.9604 93.0332 37.9479 102.138 46.7699C110.986 55.3438 147.738 107.936 149.3 110.178C149.428 110.363 149.484 110.589 149.457 110.813C149.43 111.036 149.322 111.242 149.153 111.391L115.038 141.276C114.869 141.42 114.654 141.498 114.432 141.496ZM77.6803 41.8351C65.0286 57.0715 46.2853 82.5817 49.1244 87.0387C53.2038 93.4714 88.8895 118.632 102.157 124.468C102.284 124.529 102.397 124.617 102.488 124.725L114.514 139.263L147.306 110.546C142.887 104.242 109.029 56.033 100.843 48.0565C93.1251 40.5945 79.9497 41.5962 77.6527 41.8351H77.6803Z" fill="#093F68"/>
<path d="M34.5801 109.268C34.5801 109.268 71.1478 56.4829 78.7278 49.9307C86.3078 43.3785 103.691 31.1196 110.941 31.3861C117.795 31.6434 121.507 37.5156 114.616 46.0894C114.616 46.0894 122.03 41.2649 126.56 47.8171C131.09 54.3693 122.903 60.3333 122.903 60.3333C122.903 60.3333 130.364 57.1078 133.405 62.3826C136.29 67.3817 128.14 74.1085 128.14 74.1085C128.14 74.1085 134.572 67.4093 138.624 75.6615C142.372 83.2981 100.521 115.765 95.1833 118.366C88.8161 121.472 80.8043 120.681 80.8043 120.681L62.6674 143.04L34.5801 109.268Z" fill="#E28362"/>
<path d="M62.6676 143.959C62.5326 143.959 62.3992 143.929 62.2769 143.872C62.1547 143.815 62.0465 143.732 61.9601 143.628L33.8728 109.819C33.7513 109.659 33.6855 109.464 33.6855 109.263C33.6855 109.063 33.7513 108.867 33.8728 108.707C35.3704 106.548 70.6243 55.757 78.1767 49.1957C85.7291 42.6343 103.048 30.4673 110.711 30.4673H110.977C114.653 30.6051 117.409 32.1857 118.585 34.7956C119.761 37.4054 119.265 40.5207 117.244 43.9852C120.367 43.0662 124.438 43.25 127.268 47.3761C130.097 51.5022 128.425 55.7295 126.11 58.5507C128.986 58.1923 132.358 58.7344 134.195 61.9324C135.886 64.8547 134.425 68.163 132.578 70.6993C133.138 70.6123 133.708 70.6123 134.269 70.6993C136.373 71.0209 138.118 72.5372 139.441 75.2941C139.67 75.8382 139.788 76.4224 139.788 77.0125C139.788 77.6027 139.67 78.1869 139.441 78.731C135.766 89.5563 100.788 116.702 95.6153 119.229C89.9372 121.986 83.1381 121.793 81.2363 121.674L63.4118 143.729C63.3263 143.834 63.2185 143.919 63.0962 143.978C62.9739 144.037 62.84 144.068 62.7043 144.069L62.6676 143.959ZM35.7379 109.222L62.6584 141.634L80.1153 120.075C80.2112 119.958 80.3342 119.867 80.4736 119.81C80.6131 119.752 80.7645 119.729 80.9147 119.744C80.9974 119.744 88.7611 120.461 94.8068 117.511C99.7958 115.076 134.223 88.233 137.705 78.0785C137.99 77.4352 138.032 76.7106 137.824 76.0384C136.777 73.9064 135.5 72.7118 134.021 72.4821C132.257 72.1972 130.502 73.3275 129.546 74.0811C129.114 74.4946 128.82 74.7427 128.756 74.7886C128.575 74.9353 128.345 75.0078 128.113 74.9916C127.881 74.9754 127.664 74.8716 127.505 74.7012C127.346 74.5309 127.258 74.3066 127.258 74.0738C127.259 73.841 127.347 73.617 127.506 73.447C127.765 73.187 128.038 72.9415 128.324 72.7118C130.162 70.9934 134.627 66.2791 132.633 62.8146C130.042 58.3209 123.565 61.0318 123.289 61.1513C123.082 61.245 122.847 61.2585 122.631 61.1891C122.414 61.1197 122.231 60.9725 122.116 60.7758C122.002 60.5791 121.965 60.347 122.012 60.1244C122.059 59.9018 122.186 59.7045 122.37 59.5707C122.664 59.3501 129.721 54.1121 125.752 48.3778C121.782 42.6435 115.388 46.7328 115.112 46.9075C114.929 47.0213 114.712 47.0672 114.499 47.0373C114.285 47.0073 114.089 46.9033 113.945 46.7435C113.801 46.5837 113.717 46.3782 113.708 46.163C113.7 45.9477 113.768 45.7363 113.899 45.5658C117.014 41.6694 118.089 38.113 116.922 35.5583C116.003 33.6009 113.835 32.4155 110.913 32.3052H110.693C103.618 32.3052 86.5744 44.3803 79.3436 50.6292C72.3424 56.6576 39.7254 103.524 35.7379 109.222Z" fill="#093F68"/>
<path d="M65.3177 90.2834L43.1344 77.6382C40.357 76.0549 36.8223 77.0234 35.2393 79.8014L34.6206 80.8872C33.0377 83.6651 34.006 87.2005 36.7834 88.7838L58.9667 101.429C61.7441 103.012 65.2789 102.044 66.8618 99.2657L67.4805 98.1799C69.0634 95.402 68.0951 91.8666 65.3177 90.2834Z" fill="#FFC9B0"/>
<path d="M61.8314 103.102C60.6671 103.092 59.5261 102.775 58.5237 102.183L36.335 89.5379C35.5653 89.101 34.8894 88.5162 34.3464 87.8172C33.8034 87.1182 33.4038 86.3187 33.1707 85.4647C32.9376 84.6107 32.8756 83.7191 32.9882 82.841C33.1007 81.963 33.3857 81.1158 33.8267 80.3483L34.4515 79.264C34.8866 78.4983 35.4683 77.826 36.1634 77.2855C36.8585 76.7449 37.6533 76.3468 38.5024 76.1138C39.3515 75.8807 40.2382 75.8175 41.1118 75.9275C41.9854 76.0376 42.8287 76.3188 43.5935 76.7552L65.8189 89.4736C66.5878 89.9114 67.2627 90.4966 67.8051 91.1957C68.3474 91.8949 68.7465 92.6941 68.9796 93.5478C69.2126 94.4015 69.2749 95.2927 69.1629 96.1705C69.051 97.0483 68.767 97.8953 68.3272 98.6632L67.7024 99.7475C67.2687 100.515 66.6872 101.188 65.9918 101.729C65.2963 102.27 64.5006 102.668 63.6506 102.9C63.0557 103.046 62.444 103.114 61.8314 103.102ZM40.2766 77.7936C39.8419 77.7923 39.409 77.8511 38.9903 77.9682C38.3722 78.1364 37.7935 78.4252 37.2873 78.8179C36.7812 79.2106 36.3576 79.6994 36.041 80.2564L35.4254 81.3408C35.1094 81.8976 34.9062 82.5113 34.8275 83.1467C34.7488 83.7821 34.7962 84.4268 34.9668 85.0439C35.1375 85.661 35.4282 86.2384 35.8222 86.7431C36.2162 87.2477 36.7058 87.6697 37.263 87.9849L59.4517 100.63C60.0074 100.947 60.6203 101.151 61.2552 101.23C61.8901 101.309 62.5343 101.262 63.1509 101.091C63.7675 100.921 64.3442 100.629 64.8478 100.235C65.3514 99.8401 65.772 99.3497 66.0854 98.7918L66.7101 97.7074C67.346 96.5824 67.5096 95.2509 67.1651 94.0053C66.8206 92.7597 65.9961 91.7017 64.8726 91.0634L42.6839 78.4185C41.9491 78.0053 41.1196 77.79 40.2766 77.7936Z" fill="#093F68"/>
<path d="M73.9038 80.4034L47.5298 65.3693C44.554 63.673 40.7667 64.7107 39.0707 67.687L38.8615 68.0543C37.1655 71.0306 38.203 74.8186 41.1788 76.5149L67.5528 91.549C70.5287 93.2453 74.3159 92.2076 76.0119 89.2312L76.2211 88.864C77.9171 85.8876 76.8796 82.0997 73.9038 80.4034Z" fill="#FFC9B0"/>
<path d="M70.624 93.278C69.3911 93.2832 68.1781 92.9664 67.1051 92.359L40.7267 77.3249C39.9139 76.8622 39.2003 76.2438 38.6269 75.5049C38.0534 74.7661 37.6312 73.9213 37.3846 73.0191C37.138 72.1168 37.0717 71.1748 37.1895 70.2469C37.3074 69.319 37.607 68.4234 38.0714 67.6115L38.2827 67.2347C39.2187 65.5972 40.7659 64.398 42.5848 63.9001C44.4038 63.4022 46.3459 63.6463 47.9851 64.5789L74.3635 79.6315C75.1761 80.0942 75.8897 80.7126 76.4634 81.4512C77.0371 82.1898 77.4598 83.0342 77.7072 83.9362C77.9546 84.8382 78.022 85.7801 77.9054 86.7081C77.7889 87.6361 77.4907 88.5321 77.028 89.3449L76.8167 89.7124C76.1908 90.8004 75.2882 91.7034 74.2006 92.3296C73.113 92.9558 71.879 93.2831 70.624 93.278ZM44.4753 65.4703C43.5426 65.4749 42.6274 65.7244 41.8212 66.1936C41.0151 66.6629 40.3462 67.3356 39.8814 68.1445L39.6701 68.5121C38.9772 69.7295 38.7961 71.1724 39.1665 72.5234C39.5369 73.8744 40.4286 75.023 41.6455 75.7167L68.0239 90.7509C68.6263 91.0952 69.2907 91.3173 69.9791 91.4043C70.6675 91.4914 71.3663 91.4417 72.0355 91.2582C72.7046 91.0747 73.331 90.7608 73.8787 90.3347C74.4264 89.9086 74.8846 89.3786 75.2272 88.7751L75.4385 88.4075C75.7828 87.805 76.0048 87.1404 76.0918 86.4519C76.1789 85.7634 76.1292 85.0644 75.9457 84.3952C75.7622 83.7259 75.4485 83.0994 75.0224 82.5516C74.5964 82.0038 74.0665 81.5455 73.4631 81.2029L47.0755 66.1687C46.2841 65.7141 45.388 65.4734 44.4753 65.4703Z" fill="#093F68"/>
<path d="M82.7699 70.6932L54.0649 54.3304C50.9877 52.5763 47.0714 53.6493 45.3177 56.7271C43.5639 59.8049 44.6367 63.7219 47.7139 65.476L76.4189 81.8388C79.4961 83.5929 83.4124 82.5198 85.1661 79.4421C86.9199 76.3643 85.8471 72.4473 82.7699 70.6932Z" fill="#FFC9B0"/>
<path d="M79.6004 83.6016C78.3378 83.6105 77.0943 83.2941 75.9896 82.6826L47.2591 66.27C46.3481 65.8339 45.5368 65.2148 44.8757 64.4511C44.2146 63.6875 43.7179 62.7958 43.4166 61.8317C43.1154 60.8675 43.016 59.8517 43.1247 58.8474C43.2335 57.8432 43.5479 56.8721 44.0485 55.9948C44.5491 55.1175 45.2251 54.3528 46.0343 53.7484C46.8434 53.144 47.7685 52.7128 48.7517 52.4819C49.7348 52.2509 50.755 52.2251 51.7486 52.406C52.7423 52.5869 53.6879 52.9706 54.5267 53.5333L83.2755 69.8907C84.5185 70.6211 85.5193 71.7009 86.1534 72.9957C86.7875 74.2906 87.0269 75.7434 86.8418 77.1733C86.6567 78.6032 86.0554 79.9471 85.1125 81.0378C84.1697 82.1285 82.9269 82.9178 81.539 83.3075C80.9085 83.49 80.2567 83.5889 79.6004 83.6016ZM76.844 81.0377C78.108 81.7373 79.5961 81.9128 80.9881 81.5262C82.3801 81.1397 83.5648 80.222 84.2872 78.9708C85.0097 77.7195 85.2121 76.2346 84.8511 74.8355C84.4901 73.4364 83.5944 72.235 82.3567 71.4897L53.6538 55.1231C52.3988 54.5317 50.9669 54.4354 49.644 54.8534C48.3211 55.2714 47.2044 56.1728 46.5167 57.378C45.829 58.5831 45.6209 60.0033 45.9339 61.3551C46.247 62.7069 47.0581 63.891 48.2054 64.6711L76.844 81.0377Z" fill="#093F68"/>
<path d="M86.606 58.1138L60.2319 43.0797C57.2561 41.3834 53.4689 42.4211 51.7729 45.3975L51.5636 45.7647C49.8676 48.7411 50.9051 52.529 53.8809 54.2253L80.255 69.2594C83.2308 70.9557 87.018 69.9181 88.714 66.9417L88.9233 66.5744C90.6193 63.5981 89.5818 59.8101 86.606 58.1138Z" fill="#FFC9B0"/>
<path d="M83.3216 70.9936C82.0918 70.9968 80.8823 70.6801 79.8118 70.0747L53.4334 55.0405C52.6207 54.5777 51.9072 53.9594 51.3335 53.2208C50.7598 52.4822 50.3371 51.6378 50.0897 50.7358C49.8423 49.8338 49.7749 48.8919 49.8914 47.9639C50.008 47.0359 50.3061 46.1399 50.7689 45.3271L50.9802 44.9595C51.9164 43.3199 53.4646 42.1185 55.2852 41.6189C57.1057 41.1193 59.0501 41.3623 60.6918 42.2946L87.0702 57.3287C87.8829 57.7915 88.5964 58.4099 89.1701 59.1485C89.7438 59.8871 90.1665 60.7315 90.4139 61.6335C90.6613 62.5354 90.7287 63.4773 90.6121 64.4054C90.4956 65.3334 90.1974 66.2294 89.7347 67.0421L89.5234 67.4097C89.0614 68.2241 88.4427 68.939 87.7032 69.5131C86.9636 70.0872 86.1177 70.5092 85.2143 70.7547C84.5972 70.9202 83.9604 71.0006 83.3216 70.9936ZM57.1729 43.186C56.2399 43.184 55.3231 43.4297 54.516 43.8979C53.709 44.3661 53.0405 45.04 52.5789 45.8509L52.3676 46.2185C51.6747 47.436 51.4936 48.8789 51.864 50.2299C52.2345 51.5809 53.1261 52.7295 54.343 53.4232L80.7214 68.4573C81.9386 69.1503 83.3812 69.3315 84.732 68.961C86.0827 68.5905 87.2311 67.6987 87.9247 66.4816L88.136 66.114C88.8289 64.8965 89.01 63.4536 88.6396 62.1026C88.2691 60.7516 87.3775 59.603 86.1606 58.9093L59.7822 43.8752C58.9872 43.4222 58.0878 43.1846 57.1729 43.186Z" fill="#093F68"/>
<path d="M84.1944 44.8397L81.0889 45.6208C81.0889 45.6208 64.5507 55.1964 60.3886 48.9842C56.2265 42.7721 78.2406 27.2509 83.3583 26.9936C88.4759 26.7363 96.6072 35.9718 96.6072 35.9718L84.1944 44.8397Z" fill="#FFC9B0"/>
<path d="M65.1937 52.0079C62.5844 52.0079 60.7192 51.1625 59.5983 49.49C58.6795 48.0472 58.6795 46.2001 59.8096 43.9762C63.4848 36.6246 78.6448 26.2771 83.3122 26.0474H83.5603C89.073 26.0474 96.9562 34.9613 97.2962 35.3472C97.38 35.4434 97.4429 35.556 97.4809 35.6778C97.5189 35.7996 97.5311 35.928 97.5167 36.0548C97.5023 36.1824 97.4614 36.3056 97.3965 36.4164C97.3316 36.5272 97.2442 36.6231 97.14 36.6981L84.6996 45.6304C84.605 45.6954 84.499 45.7422 84.3872 45.7682L81.4011 46.5218C78.5724 48.1054 75.6158 49.4487 72.5624 50.5376C70.2022 51.4243 67.7135 51.9209 65.1937 52.0079ZM83.5695 27.9037H83.3949C79.7198 28.0874 65.0192 37.7917 61.4451 44.8217C60.6549 46.3839 60.5263 47.5786 61.1235 48.4975C64.1187 53.0004 76.1916 47.3948 80.5926 44.8217C80.6683 44.7816 80.7485 44.7508 80.8315 44.7298L83.7624 43.9946L95.2197 35.8251C92.6379 33.0498 87.0884 27.9037 83.5787 27.9037H83.5695Z" fill="#093F68"/>
<path d="M69.2363 147.634L54.0212 166.574C53.1024 166.197 52.1836 165.802 51.2649 165.389C33.1186 157.111 18.4009 142.799 9.61621 124.89L21.8912 109.608L26.0166 112.916L60.7467 140.825L63.007 142.663L65.0742 144.326L69.2363 147.634Z" fill="#68E1FD"/>
<path d="M54.0216 167.456C53.9021 167.458 53.7835 167.436 53.6724 167.392C52.6985 166.988 51.7613 166.583 50.9161 166.188C32.5925 157.809 17.7314 143.348 8.85397 125.258C8.77665 125.101 8.74595 124.924 8.76549 124.75C8.78503 124.576 8.85398 124.411 8.96423 124.275L21.1933 109.038C21.2691 108.944 21.3628 108.865 21.4691 108.807C21.5753 108.749 21.692 108.713 21.8124 108.7C21.9328 108.687 22.0545 108.698 22.1706 108.733C22.2867 108.767 22.3948 108.824 22.4888 108.9L61.3443 140.145L63.5034 141.882L63.5861 141.937L69.7788 146.918C69.8731 146.994 69.9516 147.087 70.0097 147.194C70.0677 147.3 70.1042 147.417 70.117 147.537C70.1298 147.657 70.1187 147.779 70.0843 147.895C70.0499 148.011 69.9929 148.119 69.9166 148.213L54.7382 167.116C54.6517 167.223 54.5425 167.309 54.4185 167.368C54.2944 167.427 54.1588 167.457 54.0216 167.456ZM10.6915 124.973C19.4248 142.436 33.8732 156.381 51.6327 164.488C52.2942 164.791 52.9833 165.095 53.7092 165.407L67.9136 147.717L62.5111 143.371L62.4285 143.315L60.1683 141.478L22.0478 110.876L10.6915 124.973Z" fill="#093F68"/>
<path d="M33.1875 103.955L72.2588 135.352L65.0885 144.278L26.0172 112.881L33.1875 103.955Z" fill="white"/>
<path d="M65.1109 145.199C64.9005 145.2 64.6962 145.129 64.5321 144.997L25.4561 113.633C25.2682 113.48 25.1482 113.259 25.1224 113.018C25.0966 112.777 25.167 112.536 25.3183 112.347L32.4848 103.414C32.5619 103.321 32.6569 103.243 32.7641 103.187C32.8713 103.13 32.9888 103.095 33.1096 103.084C33.3498 103.057 33.5908 103.127 33.7803 103.277L72.8563 134.668C72.9507 134.744 73.0292 134.838 73.0872 134.944C73.1453 135.05 73.1817 135.167 73.1946 135.287C73.2074 135.408 73.1962 135.53 73.1618 135.646C73.1275 135.762 73.0705 135.87 72.9941 135.964L65.8184 144.878C65.6648 145.065 65.4436 145.184 65.2028 145.209L65.1109 145.199ZM27.3304 112.714L65.0007 142.957L71.0188 135.468L33.3485 105.225L27.3304 112.714Z" fill="#093F68"/>
<path d="M166.463 119.992C158.727 138.553 144.753 153.83 126.955 163.183C126.091 163.643 125.209 164.102 124.327 164.506L110.766 147.634L114.891 144.317L153.967 112.916L158.092 109.608L166.463 119.992Z" fill="#68E1FD"/>
<path d="M124.373 165.453C124.242 165.445 124.115 165.408 123.999 165.347C123.883 165.285 123.782 165.199 123.702 165.095L110.095 148.158C110.019 148.064 109.962 147.956 109.928 147.84C109.893 147.724 109.882 147.602 109.895 147.482C109.908 147.361 109.944 147.245 110.002 147.138C110.06 147.032 110.139 146.938 110.233 146.863L157.514 108.855C157.608 108.778 157.716 108.721 157.832 108.687C157.948 108.652 158.07 108.641 158.19 108.654C158.311 108.667 158.427 108.703 158.534 108.761C158.64 108.819 158.733 108.898 158.809 108.992L167.179 119.413C167.281 119.541 167.346 119.694 167.368 119.855C167.391 120.017 167.37 120.181 167.308 120.332C159.512 139.095 145.408 154.544 127.433 164.01C126.615 164.452 125.742 164.883 124.768 165.352C124.647 165.417 124.511 165.452 124.373 165.453ZM112.061 147.736L124.63 163.358C125.32 163.018 125.963 162.696 126.569 162.375C144.001 153.184 157.721 138.251 165.406 120.103L157.955 110.876L154.546 113.633L112.061 147.736Z" fill="#093F68"/>
<path d="M153.968 112.905L114.897 144.302L107.726 135.376L146.797 103.979L153.968 112.905Z" fill="white"/>
<path d="M114.891 145.2H114.8C114.679 145.188 114.561 145.153 114.454 145.097C114.347 145.04 114.252 144.962 114.175 144.869L107.008 135.936C106.932 135.842 106.875 135.734 106.841 135.618C106.806 135.502 106.795 135.38 106.808 135.26C106.821 135.139 106.857 135.023 106.915 134.917C106.973 134.81 107.052 134.717 107.146 134.641L146.222 103.249C146.316 103.173 146.424 103.116 146.54 103.081C146.656 103.047 146.778 103.036 146.899 103.049C147.019 103.061 147.136 103.098 147.242 103.156C147.348 103.214 147.442 103.292 147.518 103.387L154.684 112.319C154.835 112.508 154.906 112.75 154.88 112.991C154.854 113.232 154.734 113.453 154.546 113.606L115.434 144.997C115.279 145.121 115.089 145.192 114.891 145.2ZM109.002 135.495L115.02 142.985L152.69 112.742L146.672 105.252L109.002 135.495Z" fill="#093F68"/>
<path d="M50.594 34.0331C50.462 34.0342 50.3313 34.0069 50.2108 33.953C50.0903 33.8991 49.9828 33.8198 49.8957 33.7206L45.2375 28.3723C45.0766 28.1883 44.9955 27.9479 45.0118 27.7041C45.0282 27.4602 45.1408 27.2328 45.3247 27.072C45.5087 26.9111 45.749 26.8299 45.9929 26.8463C46.2367 26.8627 46.464 26.9753 46.6248 27.1593L51.2831 32.5076C51.4426 32.6917 51.5225 32.9315 51.5053 33.1745C51.488 33.4175 51.3751 33.6436 51.1912 33.8033C51.0261 33.949 50.8141 34.0305 50.594 34.0331Z" fill="#DFEAEF"/>
<path d="M31.5851 56.1706C31.4816 56.1695 31.3791 56.1508 31.2819 56.1155L16.8293 51.0245C16.706 50.9929 16.5905 50.9359 16.4903 50.8573C16.3901 50.7786 16.3073 50.68 16.2473 50.5677C16.1872 50.4554 16.1511 50.3318 16.1414 50.2048C16.1316 50.0777 16.1484 49.9501 16.1905 49.8299C16.2327 49.7097 16.2994 49.5996 16.3864 49.5066C16.4734 49.4135 16.5788 49.3396 16.6959 49.2895C16.813 49.2393 16.9392 49.2141 17.0666 49.2154C17.194 49.2166 17.3197 49.2444 17.4357 49.2968L31.8883 54.3787C32.1319 54.4189 32.3497 54.5543 32.4935 54.755C32.6374 54.9558 32.6957 55.2055 32.6555 55.4493C32.6152 55.693 32.4799 55.9108 32.2792 56.0547C32.0784 56.1986 31.8287 56.2568 31.5851 56.2166V56.1706Z" fill="#DFEAEF"/>
<path d="M16.2776 93.4893C16.0339 93.5174 15.7891 93.4474 15.597 93.2949C15.4048 93.1424 15.2812 92.9198 15.2531 92.6761C15.2251 92.4323 15.295 92.1874 15.4475 91.9953C15.6 91.8031 15.8226 91.6794 16.0663 91.6514L24.1516 89.7492C24.38 89.7137 24.6134 89.7657 24.8052 89.8947C24.997 90.0237 25.1332 90.2203 25.1865 90.4452C25.2398 90.6702 25.2064 90.907 25.093 91.1084C24.9795 91.3098 24.7943 91.4611 24.5742 91.5319L16.4889 93.4434C16.4207 93.4678 16.3497 93.4832 16.2776 93.4893Z" fill="#DFEAEF"/>
<path d="M123.307 34.0331C123.087 34.0305 122.875 33.949 122.71 33.8033C122.526 33.6436 122.413 33.4175 122.396 33.1745C122.379 32.9315 122.459 32.6917 122.618 32.5076L127.276 27.1593C127.437 26.9753 127.664 26.8627 127.908 26.8463C128.152 26.8299 128.392 26.9111 128.576 27.072C128.76 27.2328 128.873 27.4602 128.889 27.7041C128.906 27.9479 128.824 28.1883 128.664 28.3723L124.005 33.6839C123.922 33.7898 123.816 33.876 123.695 33.9363C123.575 33.9967 123.442 34.0297 123.307 34.0331Z" fill="#DFEAEF"/>
<path d="M142.317 56.1707C142.074 56.2109 141.824 56.1527 141.623 56.0088C141.422 55.8649 141.287 55.6471 141.247 55.4034C141.207 55.1597 141.265 54.91 141.409 54.7092C141.553 54.5084 141.77 54.373 142.014 54.3328L156.467 49.3061C156.583 49.2537 156.708 49.2259 156.836 49.2247C156.963 49.2234 157.089 49.2486 157.206 49.2987C157.323 49.3489 157.429 49.4228 157.516 49.5158C157.603 49.6089 157.67 49.719 157.712 49.8392C157.754 49.9594 157.771 50.087 157.761 50.214C157.751 50.341 157.715 50.4646 157.655 50.577C157.595 50.6893 157.512 50.7879 157.412 50.8665C157.312 50.9452 157.196 51.0021 157.073 51.0337L142.62 56.1248C142.523 56.157 142.42 56.1725 142.317 56.1707Z" fill="#DFEAEF"/>
<path d="M157.624 93.4898C157.554 93.4987 157.483 93.4987 157.413 93.4898L149.328 91.5783C149.107 91.5074 148.922 91.3562 148.809 91.1548C148.695 90.9534 148.662 90.7166 148.715 90.4916C148.769 90.2666 148.905 90.0701 149.097 89.9411C149.288 89.812 149.522 89.7601 149.75 89.7955L157.835 91.6978C158.079 91.7258 158.302 91.8495 158.454 92.0417C158.607 92.2338 158.677 92.4787 158.649 92.7224C158.621 92.9661 158.497 93.1888 158.305 93.3413C158.113 93.4938 157.868 93.5637 157.624 93.5357V93.4898Z" fill="#DFEAEF"/>
<path d="M86.951 18.9804C86.7073 18.9804 86.4736 18.8836 86.3013 18.7113C86.129 18.5389 86.0322 18.3052 86.0322 18.0615V5.62794C86.0322 5.38422 86.129 5.15048 86.3013 4.97814C86.4736 4.8058 86.7073 4.70898 86.951 4.70898C87.1947 4.70898 87.4284 4.8058 87.6007 4.97814C87.773 5.15048 87.8698 5.38422 87.8698 5.62794V18.0615C87.8698 18.3052 87.773 18.5389 87.6007 18.7113C87.4284 18.8836 87.1947 18.9804 86.951 18.9804Z" fill="#DFEAEF"/>
<path d="M86.951 151.825C86.7073 151.825 86.4736 151.728 86.3013 151.556C86.129 151.383 86.0322 151.15 86.0322 150.906V138.445C86.0322 138.201 86.129 137.967 86.3013 137.795C86.4736 137.623 86.7073 137.526 86.951 137.526C87.1947 137.526 87.4284 137.623 87.6007 137.795C87.773 137.967 87.8698 138.201 87.8698 138.445V150.869C87.8748 150.993 87.8546 151.116 87.8107 151.232C87.7667 151.348 87.6999 151.454 87.614 151.543C87.5282 151.632 87.4253 151.703 87.3113 151.752C87.1974 151.8 87.0748 151.825 86.951 151.825Z" fill="#DFEAEF"/>
</svg>
